<svg id="Camada_1" data-name="Camada 1" xmlns="http://www.w3.org/2000/svg" viewBox="0 0 745 683.95"><defs><style>.cls-1{fill:#fff;}</style></defs><title>Nova Logo Branca</title><path class="cls-1" d="M466.26,614.8c-4,.32-4.6-2.56-4.64-5.37a67.84,67.84,0,0,1,.86-9.29c.4-3.15-.23-4.83-4.06-4.83-15.4,0-30.81-.57-46.22-.43-22.09.2-44.18.78-66.27,1.33-3.2.08-6.38,1-9.58,1.22-1.34.07-2.8-.77-4.1-1.39-13-6.2-25.92-12.65-39.07-18.55-5.15-2.31-10.85-3.42-16.61-5.17l-12.51,69.94a22,22,0,0,0-4,.23c-6.28,1.64-9.89-2.82-13.77-6.22-2.06-1.81-.9-4.14-.05-6.77,3.29-10.32,6.11-20.83,8.49-31.4,1.88-8.41,2.68-17.07,4.34-25.54.55-2.76-.23-3.73-2.57-4.76-10.16-4.46-20.22-9.14-30.36-13.64-1.35-.6-3-.6-5.08-1,0-4.21,0-8.67,0-13.12-.15-14.17-.71-28.35-.42-42.51.3-14.75,1.37-29.49,2.17-44.23.19-3.66-.2-6-5-6.44s-9.24-2.77-14-3.62a86.78,86.78,0,0,0-13.59-1.07c-4.79-.1-9.61.32-14.57-4.12,30.21-7.38,52.7-25.94,74.41-46.06-2-2.45-3.94-4.1-4.88-6.19-.87-1.93-.68-4.34-1-6.91-1-.18-3.55.09-4.92-1.05a10.08,10.08,0,0,1-3.43-6.14c-.19-2,1.1-4,4.52-3.38,1.77.32,4-2,6-3.14-5.1-3.32-11-2-16.88,3.39-12.16,11.19-16,25.7-16.86,41.45-.1,1.79,1.61,4.54-2,5a1.38,1.38,0,0,0-.27,1.14c2.83,3.65-1,3.39-3.32,5.2-1.15-4.19-2.6-7.79-3.07-11.52-1-8.32-1.12-16.64,1.56-24.79s4.74-16.29,7.7-24.22a21.42,21.42,0,0,1,6.2-8.49c5.1-4.25,10.76-7.83,17.29-12.47-2.75-4.4-5.31-9.67-9-14-4.44-5.3-16-2.53-18.3,4a58.9,58.9,0,0,0-3.33,12.94c1.55-2.42,3-4.93,4.69-7.25,1.91-2.63,4-5.15,6.12-7.61s4.77-3.78,8.64-2.06c-10.3,5.6-14.41,15.35-19,24.82a19.44,19.44,0,0,1-4.62,5.86c-2.56-10.84.32-20.58,4.77-29.92A91.71,91.71,0,0,1,214,314.94c5.26-7.78,13-8.54,18.58-1,5,6.75,8.6,14.49,12.78,21.81a28,28,0,0,0,4.61,6.7c1-6.29,1.78-12.62,3-18.87a16.88,16.88,0,0,1,2.78-7.12c7.31-9.34,12.71-8.92,23.71-1.66a22.4,22.4,0,0,1,5.75,6c.71,1,0,2.95.2,4.44a12.68,12.68,0,0,0,1.18,2.92l4.86-4.94,1.5,1.09c-2.57,5.69-5.29,11.32-7.61,17.11a7,7,0,0,0,.32,5c1.73,3.67,3.93,7.12,6,10.81,4.56-2.45,2.21-10.4,8.58-11.15-1.58-9.11-3.14-18.15-4.77-27.58l-1.85,3.18a9,9,0,0,1-1-.34c.41-2.14.23-5.47,1.45-6.11,2.07-1.09,5-.58,7.63-.57,11.31,0,22.62.07,33.94.24,16.85.24,33.71.64,50.57.9,9.17.14,18.34.25,27.5.15,20.9-.23,41.83-.16,62.7-1.13,9-.41,18.67,0,26.13-7,5.37-5,9.49-11.06,14.15-16.66,3.27-3.93,6.07-8.25,9.18-12.32a3.55,3.55,0,0,1,2.33-1.25c.43,0,1.08,1,1.42,1.66,2.59,5.16,4.89,10.48,7.74,15.49,3,5.34,6.46,10.47,9.94,15.53.71,1,2.54,2.11,3.64,1.92,11.25-2,11-2,14,8.46,2.41,8.57,5.39,17,8.27,25.95,11.15-6,17.7-16.42,28.62-20.4-2.77-3.9-2.39-6.21,1.27-9,10.53-8,20.92-16.14,31.45-24.11,10.27-7.77,20.54-15.54,31-23,8.73-6.25,17.8-12.05,26.64-18.15,2.87-2,3.94-3.72,1-7.41-7.71-9.75-17.56-16.53-28.08-22.63-5.4-3.14-10.69-6.48-16.23-9.35-6.4-3.32-13-6.34-19.55-9.26-9.64-4.27-19.31-8.5-29.08-12.44-9.33-3.76-18.76-7.26-28.22-10.64-22-7.87-44.73-12.61-67.92-15.55-20.06-2.54-40.12-2-60.12-.63-18.18,1.23-36.22,5.24-54.39,5.77-10.91.31-19.73,4.76-29.13,8.36-9.66,3.71-18.92,8.45-28.45,12.54-24.83,10.64-47.68,25-70.91,38.5-13.52,7.87-25.45,18.43-38.21,27.61-16.67,12-30.43,27-43.51,42.55-6.71,8-12,17.18-18,25.73-11.63,16.4-19,34.76-23.79,54.06-5.84,23.59-12.17,47.15-13.74,71.58-.24,3.71.19,7.45.25,11.19.16,9,.16,18,.52,27.05.11,2.65,1.25,5.25,1.92,7.87l.1-.08-4.31,3.67c-.48-1.38-1.33-2.71-1.36-4.07-.34-13.7-1.2-27.44-.6-41.1a205.39,205.39,0,0,1,4.39-35.41c4.75-21.39,9.86-42.78,16.41-63.67,4.07-13,11.07-25,19.5-36,5.17-6.75,9.26-14.36,14.7-20.86,7.65-9.15,16-17.78,24.25-26.38,16-16.61,35-29.66,53.85-42.6,10.6-7.26,22.22-13,33.44-19.39,10.77-6.1,21.39-12.52,32.49-18,11.4-5.61,23.16-10.57,35-15.17,10.25-4,20.62-8.63,31.35-10.18,23.46-3.38,47.14-5.34,70.79-7.21,43.2-3.41,84.58,5,125.05,19.72,25.67,9.35,50.33,20.92,74.75,32.93,11.34,5.58,21.6,13.52,31.86,21,4.24,3.11,7.2,7.94,11.41,12.77,7.9-5.81,15.78-11.48,23.5-17.35,2-1.49,4.48-3.4,1.09-6.24-.27-.23.71-2.69,1.64-3.47,6.78-5.61,13.48-11.35,20.61-16.5,13.57-9.82,27.35-19.36,41.15-28.84,3.64-2.5,7.19-6.39,12.07-5.14,3.69.94,9.19-.25,10.27,6,8.5-1.12,16.17,1.36,23.65,5.81,11.14,6.64,21.09,14.19,26.87,26.28,5.53,11.58,7.91,28.27-2.89,39l3,1.12c-1.56,3.07-3.12,6.15-4.82,9.48.1,1.83.68,4.36.26,6.71-2,11.29-9.75,17.21-19.89,21-8.86,3.27-17.56,6.94-26.37,10.31-12,4.61-24.13,9.1-36.17,13.69-1.2.46-2.17,1.48-3.37,1.94-2.55,1-4.81,3.66-7.13-1.35-1.89-4.07-6.55-1.82-9.85-.55-7.71,3-15.4,6-22.92,9.37-24.31,11-48.5,22.19-72.81,33.17-8.9,4-18,7.48-26.94,11.49-1.68.76-2.53,3.2-4.15,4.3-1.18.81-3.72,1.5-4.4.87-3.57-3.26-7-2.26-10.88-.81-6.22,2.35-12.56,4.38-19.85,6.89,9.6,11.11,17.32,22.84,30.39,29.22l-.36,1.46c-2.52-.67-5.42-.73-7.47-2.09-10.5-7-17.64-17.13-25.42-27.13L554.82,388c1.11,5.74,2.37,12.25,3.7,19.18l19.76-1c-1.78-6.11-3.75-12.41-5.33-18.82-.3-1.18,1-2.76,1.61-4.15,1.09.86,2.91,1.55,3.15,2.61,1.56,6.77,2.78,13.63,4.14,20.66,28.18-.37,57.25-.33,88.2-2.29,3.72,1.79,2.43,7.19,2.61,11.84.53,13.3.69,26.62,1.22,39.91.18,4.51-3.24,8.37-8.91,9.44-11.07,2.11-21.13,6.76-30.56,12.74-5.16,3.27-6.08,9.32-5.75,14.26,1.13,17.14,3.3,34.21,5.14,51.3.89,8.15,2.38,16.25,2.8,24.41s-.28,16.65-.2,25c.06,6.22.57,12.43.88,18.74-6.81.39-12.89,6.29-18.88.79,3.49-20.69,3.76-41.16,4.11-61.32-6.34,5.86-13,11.37-18.73,17.67-1.81,2-1.4,6.11-1.81,9.27-.52,4.14-.58,8.35-1.43,12.4-.23,1.11-2.61,2.55-4,2.53-21.37-.35-42.74-1-64.11-1.41-11.29-.23-22.6-.38-33.89-.25-7.65.08-15.3.7-23.54,1.11l1.17,23.54c-2.91,1-4.93,1.8-7,2.32-3.6.91-7.44,3.18-10.74-1.27l7.73-2.53,5.85-.29c-.5-27.91-1-55.35-1.47-82.8H469q-.36,10.46-.72,20.92Q467.26,583.67,466.26,614.8Zm-185-81.67c-.26.19-.74.35-.75.55-1,11-2,22-2.8,33-.08,1.09,1.41,2.29,2.17,3.44a176.41,176.41,0,0,0,1.22-20.74c.07-5.42.06-10.84.09-16.26a8.22,8.22,0,0,0,1-2.39q1.44-32.27,2.78-64.54,1.81-43.07,3.62-86.14c.06-1.43-.12-2.86-.25-5.34l-13.18,18.17c-2.25,2.47-4.39,5.06-6.79,7.38s-2.43,4.36-1.57,7.37c1.65,5.75,2.57,11.7,3.94,17.54.73,3.12,1.76,6.18,2.65,9.26l.65-.25q.69-20.55,1.39-41.09c2.34-1.58,3.56,0,3.48,1.87-.37,9.42-.82,18.85-1.66,28.24-.63,6.92-1.25,14.07-1.2,20.76.13,17.63,2.93,35.22,4.13,52.86C281,508.88,280.89,521,281.23,533.13Zm156-109.45c.59-1.76,1.09-3.12,1.5-4.5,2.59-8.75,4.2-17.94,8-26.16,9.42-20.66,20.73-40.31,35.07-58.08,4.39-5.44,8.33-11.25,13.25-17.95-8.41,3.28-15.19,6.37-22.24,8.57s-14,5.46-20.91,2.83c-18.9,27.12-39.23,53-49.33,85.05-1.26-1.15-2.17-2.36-1.88-3.12,2.54-6.84,4.51-14.05,8.13-20.29,9.76-16.85,20.09-33.38,30.53-49.82,5.08-8,10.71-15.14,22-15.27,5.62-.06,11.21-3.17,16.81-4.91l-.36-1.59c-1.54.08-3.07.19-4.61.23-18.17.37-36.34.88-54.51,1-10.74.08-21.49-.39-32.23-.67-16.59-.44-33.18-1.27-49.77-1.29-11.59,0-23.19,1-35.73,1.66-.09,2.12-.75,5.05-.25,7.77A436.57,436.57,0,0,0,320,399.84c9.05,24.62,23.5,45.85,41.31,64.91A6.09,6.09,0,0,0,365,466.6c7.35.47,14.72.76,22.08,1,12.94.41,25.88.69,38.81,1.18,1.33.05,2.62,1.19,3.93,1.82l-.56,1.62L369.2,469.8c-.86,2-1.31,3.07-1.76,4.11-1.24-.54-2.81-.77-3.67-1.68-4.92-5.17-9.66-10.49-14.67-16-.81,2.44-1.94,4.48-2.12,6.6-.57,6.65-.34,13.4-1.22,20-2.22,16.77-4.23,33.53-3.3,50.5.43,7.85,1.1,15.68,1.33,23.54.29,9.8.28,19.62.28,29.43,0,.7-1,1.39-1.48,2.08-.77-.62-1.88-1.1-2.21-1.9a9.42,9.42,0,0,1-.23-3.42c-.12-11.09,0-22.19-.37-33.28-.28-9.14-2-18.35-1.33-27.39,1.32-17.31,3.89-34.53,6-51.78.67-5.52,1.51-11,2.35-17.07l-14.21-20.1c-.34,14.77-.73,27.94-.92,41.11-.13,8.49.43,17,0,25.49-.83,15-2.43,29.95-3.31,44.94-.68,11.81-.69,23.66-1.18,35.48-.11,2.86-.94,5.69-1.61,9.54,4,1,9.73,4.4,12.93,2.78,6.27-3.17,12.17-1.2,18.15-1.78,2.7-.26,5.47.32,8.63.54-.4-8.15-1.05-15.73-1.08-23.32a170.58,170.58,0,0,1,1-22c1.32-10.46,2.66-21,5.39-31.18,3.12-11.61,11.49-18.89,23.79-18.61,12.71.28,22.39,3.13,25.92,16.11a155.24,155.24,0,0,1,4.27,25.13c.78,7.65.52,15.42.64,23.13.15,9.74.22,19.48.34,30.09h36.53a29.15,29.15,0,0,0,.55-3.45q1.27-23.28,2.49-46.57c.77-14.56,1.61-29.12,2.23-43.68.06-1.5-.92-3.24-1.85-4.56-7.23-10.24-18.45-13.7-29.57-17.47-2.18-.73-3.94-2.95-5.55-4.79-.22-.24,1.54-2.23,2.83-4-8.5-.55-12.82-6.94-16.5-13.07C409.87,441.93,404,430,397.9,418.3c-.68-1.28-.64-2.94-.94-4.42l1.22-.84c1.24,1,3.42,1.84,3.56,2.95,1.31,10.61,7.61,18.91,12.52,27.84,4.25,7.72,8.53,15.47,17.63,19.06-1.12-10.37-2.23-20.61-3.49-32.3l45.06-10.67-2.26-45.19c6.87,1,12.74,2.17,18.68,2.53,8.88.54,17.8.53,26.71.66a7.67,7.67,0,0,0,2.79-.88c4-1.64,7.9-2.26,11.08,1.49l42.38-30.17c-8.14-10.13-10.26-22.12-13.27-34.14l-9.12,2.89c5.06,11.38,9.86,22.17,14.65,33l-1.67,1.24c-1.15-1.18-2.75-2.16-3.37-3.57-4.43-10.15-8-20.73-13.13-30.51-5.62-10.75-12.58-20.8-19.33-31.75l-11.71,16c2.06,2.92,4.11,5.66,6,8.51C532.08,325.5,537,343.3,544,360.21c.38.94-.57,2.43-.9,3.66C538,353.4,534.33,343,529.78,333s-9.91-19.61-15.07-29.67c-7.43,6.24-15.17,10.28-19.18,18.36a45.48,45.48,0,0,1-5.5,7.95c-3.66,4.59-8,8.7-11.13,13.62q-12.24,19.49-23.54,39.55c-3.3,5.87-6.57,11.81-7.79,18.75-1.18,6.68-3.54,13.15-5.52,19.67C441.39,423.38,440.9,426.56,437.27,423.68Zm85,43.59c-5.06.25-9.86-.17-14.35.84-12.7,2.85-23.72,9.22-33.39,17.86a7.7,7.7,0,0,0-2.4,5.07c-.09,7.86-.69,15.9.68,23.55,1.17,6.48-.73,13.08,4.1,19.71,10.05,13.81,22.63,23.44,38,30.2,13.87,6.12,28.24,6.58,43.1,5.55,13.9-1,26-6,37.34-13.45,1.75-1.14,2.94-4.1,3.2-6.36.55-4.68.3-9.45.39-14.19.39-20.15.82-40.3,1.11-60.45,0-2.76.52-6.28-4.29-6.05-.8,0-1.68-1.52-3.07-2.87l6.77-1.29c-4.74-.8-9.24-.31-13.73-.4-15.17-.31-30.33-.86-45.5-1.26-5.31-.14-10.64.12-15.92-.33-1.55-.13-3.89-1.84-4.23-3.22-.79-3.29-.72-6.82-.78-10.25-.17-8.79-.11-17.58-.39-26.37-.06-1.63-1.32-3.22-2.15-5.13l2-1.23c-9.25-1.9-24.58,1.54-25.37,5.42l7.43-1.31c.11.38.23.77.34,1.16-1.74.63-3.45,1.71-5.23,1.81-5.2.3-6.28,3.15-6.3,7.84-.05,9.21-.66,18.41-1.15,27.61-.05.93-.85,1.82-1.3,2.73-.59-.93-1.71-1.86-1.7-2.77.05-6.38.32-12.76.55-19.14.15-4.48.35-9,.56-14.16-8.28,1.75-15.74,3.2-23.11,5A4.49,4.49,0,0,0,461,434.7c-.43,6.68-.5,13.37-.73,20.06-.06,1.63-.28,3.24-.42,4.86l-.74-.08-1.36-27.3-23.55,6.07,1.48,29.54c10.1-.5,20-.88,29.91-1.52,16-1,32.07-2.24,48.11-3.3C517.75,462.77,521.24,464.53,522.23,467.27ZM726,232.71c-6.71,4.58-12.05,8.09-17.25,11.8-2.82,2-5.21,4.7-8.14,6.53-7.07,4.43-14.73,8-21.46,12.89-16.19,11.75-32,24.05-47.94,36.14-8,6.08-16.28,11.9-23.91,18.44-2.22,1.91-4.08,6.12-3.67,8.91a65.55,65.55,0,0,0,13.83,32.25c1.65,2.05,3.41,5,7.59,3,16.85-7.91,33.88-15.44,50.83-23.13,19.19-8.71,38.35-17.47,57.55-26.14,7.53-3.39,15.15-6.58,23.4-10.15C738.33,282.93,727.64,259.86,726,232.71Zm69.51-58.56a32.7,32.7,0,0,0-3.54,1.91c-6.47,4.68-12.85,9.48-19.36,14.11-13.55,9.63-27.28,19-40.65,28.9-2.13,1.58-4,5.34-3.8,7.9a139.33,139.33,0,0,0,4,25c2,7.45,5.38,14.61,8.74,21.62,5.67,11.83,13.17,22.46,23.33,30.9,1.84,1.53,5.4,2.61,7.52,1.92C782.23,303,792.59,299,802.89,295c10.47-4.13,20.83-8.55,31.17-13,3.87-1.67,7.54-3.81,12.08-6.13C806.21,265.69,783.92,209.19,795.46,174.15Zm-537,234.64-5.12,4.89c-5.48,5.23-10.73,10.73-16.52,15.57-4.27,3.57-9.53,5.59-9.82,12.66-.6,14.36-2.57,28.69-2.79,43-.16,9.55-1.68,19.18.91,28.82,1.27,4.73.61,10.05.45,15.09-.24,7.21-.83,14.4-1.24,21.1L238,555.32c.51-21,1.48-41.87,1.39-62.69s-.31-41.48,2-62.23a12.47,12.47,0,0,1,2.18,7.14c-.31,16.88-.77,33.77-1.18,50.66-.32,13.08-.81,26.16-.9,39.25-.06,7.83,1.09,15.71.56,23.5-.34,5.06.11,8.09,6.58,8.56.14-9.68.35-19.09.38-28.5s-.14-18.85-.15-28.28-.09-19,.13-28.52.07-19,1.36-28.39c1.24-8.93-1.44-18,1.69-27,1.4,1.08,2.39,2.3,2.42,3.54.14,4.56.05,9.14-.11,13.71-.51,13.94-1.15,27.88-1.63,41.83-.44,12.62-.83,25.24-1.06,37.86-.13,7.3,0,14.6.22,21.9.25,8,.76,15.92,1.2,24.7l4.51,2c.73-40.22,1.44-79.73,2.16-119.25h1.75c.38,19.29,1.17,38.57,1,57.85s-1.23,38.34-1.91,57.51C273.24,509.91,266.68,459.81,258.5,408.79Zm155.27,182c-.72-21.12-1.11-42-2.31-62.76a29.12,29.12,0,0,0-11.11-21.67c-8.49-6.69-15.1-7.35-21.5,2.75a61.32,61.32,0,0,0-8.41,22.57c-1.87,11.72-2.07,23.76-2.36,35.68-.2,7.94.68,15.91,1.07,23.65ZM860.5,227.68a45.22,45.22,0,0,0-10.86-28.89c-6.92-8.46-16.35-13.86-25.94-18.72-5.76-2.92-11.3-1.95-13.46,1.86-4.7,8.28-8.25,17.49-5.82,26.75,5.31,20.19,15.52,37.6,33.42,49.52,6.22,4.15,11.56,1.34,12.21-6.14a5.63,5.63,0,0,1,2-3.2C859.2,242.61,859.62,234,860.5,227.68ZM521.69,417.37c.69,13.86,1.24,26.69,2.13,39.51.07,1,2.38,2.64,3.73,2.72q18.87,1.2,37.77,1.88c10.55.38,21.11.48,31.19.69.32-14.85.64-29.15,1-43.44H559.83q-1.19,20.64-2.36,41.13l-2.12-.13c.64-13.63,1.27-27.27,1.93-41.5Zm77.56,44.95,71.49-3.57-2.19-44-30.78,1.53,2.14,43.1-2.77.26c-2.21-14.2-2.21-28.65-2.92-43.24l-33.58,1.68C600.19,432.53,599.74,446.8,599.25,462.32ZM322.42,587.54c.47-6,.95-11.78,1.36-17.54,1.34-18.58,3.26-37.15,3.83-55.75.76-24.52.39-49.08.68-73.62,0-3.22,1.09-6.43,2-11.21l-11.36-21.95c-3.3,57.48-6.63,115.49-10,173.63ZM515.16,397.78l1.21,1,98.3-36.54L598.73,331c-.87.59-2.35,1.52-3.74,2.57-15.21,11.52-30.47,23-45.6,34.62-10.61,8.16-21.09,16.5-31.5,24.92C516.58,394.2,516.05,396.21,515.16,397.78Zm-213.9-48.7a20.13,20.13,0,0,0-2.27,3.56c-2.21,6-5.1,11.26-3.41,18.58,2.78,12,3.52,24.53,5,36.85.12,1-.88,2.13-1.36,3.2a14.91,14.91,0,0,1-2.55-2.46,9.62,9.62,0,0,1-1.09-3.24c-1.09-4.92-2.13-9.86-3.27-15.14-.51.71-.85,1-.86,1.23-1,14.64-2.13,29.27-2.86,43.93-.4,8.12,0,16.27-.17,24.4-.28,12.83-.64,25.67-1.16,38.49-.42,10.29-1.16,20.55-1.7,30.83-.63,12.19-1,24.4-1.87,36.57-.4,5.61,2.47,6.64,7.75,6.58.68-4.25,1.72-8.53,2-12.85.71-11.28.94-22.59,1.64-33.87,1-15.65,2.36-31.28,3.31-46.93,1.17-19.45,2-38.93,3.13-58.39.75-13.18,3.42-26.27,1.82-39.57-.28-2.39.61-5,.08-7.25-1.28-5.4,3.14-10.52.27-16C302.34,355.08,302.05,352,301.26,349.08Zm5.89,21.75c-.6,2.17-1.41,3.73-1.39,5.27.17,8.52,1.47,16.92-.21,25.59-1.29,6.71,0,13.88-.38,20.82-.95,18.46-2.23,36.9-3.27,55.35-1.72,30.76-3.33,61.52-5.08,92.28-.1,1.62-1.08,3.19-1.66,4.82l10.56,4.35c.42-3.12,1-6.08,1.18-9,1-17.88,1.77-35.77,2.73-53.65,1.08-19.93,2.31-39.86,3.42-59.79.67-12.08,1.71-24.17,1.72-36.26,0-9.7,3.12-19.48-1.3-29.22C310.66,385.16,309.38,378.29,307.15,370.83ZM543.93,588.94l.25-1.24c-7-2.73-14-5.42-21-8.2-10.06-4-17.62-11.38-25.23-18.71-6.29-6-12.63-12.06-18.9-18.13-1.53-1.48-2.88-3.15-4.39-4.82,0,16.51.08,32.5.07,48.5,0,3,1.48,3.34,4.12,3.21,10.15-.5,20.32-.94,30.48-1C520.86,588.46,532.4,588.79,543.93,588.94ZM519.85,387.55l-1.49-1-42.71-2.24,1.72,34.57L518,412l-2.49-4.08c4.28-4.9,8.93,1.54,13.5-.86-.42-2.76-.86-5.72-1.31-8.7L514,403.18,509.57,411l-1.33-.52c.15-1.35-.05-2.89.52-4C512,399.94,508.75,390.12,519.85,387.55Zm-333,50.29c7.57.91,14.26,1.36,20.77,2.67a7.94,7.94,0,0,0,6.67-1.22c14.2-9.17,29.52-16.66,40.18-30.71,2.57-3.38,2.57-6.08,2.11-9.3-.34-2.41-1.61-4.69-2.4-6.85C234,411.11,213,427.91,186.85,437.84Zm416.34,31.25c-.36,5.5-.88,9.36-.8,13.2.15,7.33.58,14.65,1.05,22,.07,1,1,2.78,1.61,2.84,6.29.55,12.6.81,19.3,1.17,0-8.55.09-16.53-.14-24.5a6.14,6.14,0,0,0-2.28-4.46C616.14,475.86,610.11,472.81,603.19,469.09Zm-4.47,90.5c-27.46,17.44-56.15,19.26-86.23,8.95a18,18,0,0,0,4.91,3.63q12.06,5.22,24.25,10.12c2.83,1.14,5.82,2.63,8.75,2.68,14.9.25,28.8-3.23,41.14-12C596,569.79,600.15,566.62,598.72,559.59ZM207.79,407.5c2.15-8.07,4.12-16.61,6.71-24.95,3.65-11.74,15.59-21.79,26.66-22.06,4-.1,8.35,1.31,10.9,5.56l-13.64,6.26c4.67,4.63,7.46,1.49,10.65-.11,2.7-1.35,5.68-3.74,8.28,1,.85,1.53,4.3,1.63,6.52,2.38,1.2-9.14-4.86-8.27-9.46-8.87-.23-2.45-.43-4.55-.52-5.52-2.23-2.15-3.87-3.49-5.2-5.09-2-2.38-3.63-5.05-5.63-7.42-2.58-3.05-6.87-3.63-9.85-.84A59.6,59.6,0,0,0,223.35,359c-3.83,6.06-9.81,10.7-11.5,18.22C209.57,387.35,205.46,397.19,207.79,407.5ZM603.44,510.07c-.68,13.94-1.34,27.48-2,41,6.47-4.68,11.74-10.06,17.28-15.17,6.89-6.36,4.53-14.88,5.57-22.6.08-.55-1.1-1.78-1.77-1.84C616.25,510.91,610,510.52,603.44,510.07Zm250.19-251.4c-3.27,2.1-5.94,5.17-8.79,5.36-6.19.42-11.66-2.82-16.09-6.95-13.88-12.93-23.64-28.55-27.84-47.1-2.4-10.59.3-20.62,6.57-29.63,1.4-2,2.36-4.44-1.36-5.73-4.83-1.67-8.36.36-9.08,6.48-1.89,16-1.08,32,5.67,46.69a127.32,127.32,0,0,0,16.8,27.4c6.93,8.45,16.33,14.5,27.67,16.26a3.58,3.58,0,0,0,3-1.51C851.55,266.34,852.49,262.59,853.63,258.67ZM635.26,407.84c-8.58.42-16.77.88-25,1.23-10.53.44-21.07.94-31.61,1.15-18.09.36-36.19.48-54.27.82-1,0-2,1.16-3.07,1.78l.69,1.28,34.72,1.44c.63-1.45,1.21-2.77,1.79-4.09l1.11.18c.31,1.49.61,3,1.2,5.78,10.31-.52,20.58-1.47,30.84-1.34,4.57.05,7.06-.36,6.14-6.12l1.42.41,1.65,5.35L634,414.06C634.43,411.9,634.75,410.35,635.26,407.84ZM276.84,354.69c-2.75,5.36-6,10-7.48,15.12-1.17,4.17-1,8.46-6.14,9.94a2.06,2.06,0,0,0-1.12,1.48c-.67,5.52-1.5,11.09,3,16.89,5.64-7.22,11.2-14.17,16.54-21.29,1.72-2.29,4.49-5.48,3.94-7.48C284.15,364.09,282.88,358.19,276.84,354.69ZM630.22,540l-2.67,0c-2.29,23.42-2,47-4.49,70.38,9.68,1.45,10.22.93,9.86-7.68s-.49-16.93-.86-25.38C631.51,564.88,630.84,552.46,630.22,540Zm-213,52.52c1.56-2.21,3-3.38,3.26-4.79a42.32,42.32,0,0,0,1.23-10.7c-1-17.81-1.83-35.64-3.59-53.37-1-10.22-3.05-20.74-17.77-21.77,1.85,1.69,3.27,2.85,4.51,4.17,2,2.11,4.75,4,5.57,6.56,2.45,7.57,5.4,15.32,5.84,23.13C417.33,554.13,417,572.56,417.26,592.54ZM253.09,350c3.81-4.49,3.25-10.59,8.65-12.44-1.39-5,3-7.37,5.1-10.71,3.11-5,7.21-8.34,13.78-4.66-1.12-1.71-1.93-3.27-3.21-4.12-10.14-6.78-17-6.82-21.15,7-1.76,5.82-1.75,12.17-2.52,18.28C253.51,345.15,253.38,347,253.09,350Zm2.66,264.28c-1.62,5.5-2.89,12-5.49,17.88-1.89,4.31.29,5.24,3.13,6.38,3.08,1.24,6.29,2.08,7.28-2.53,1.69-7.83,3.21-15.7,4.64-22.77ZM467.91,469.52l-27.69,1.38c9.14,6.07,19.69,9,27.27,18.06C467.64,481.94,467.77,475.86,467.91,469.52Zm71-61.89,16.67-.83c-1.57-5.62-3.16-11.33-4.95-17.73l-12.41,4.67Zm60.19,165c-6.05,3.86-10.89,7.63-16.31,10.22-5.14,2.46-10.88,3.69-16.36,5.46l.16.56,31.52.45C598.42,583.66,598.73,578.38,599.07,572.65ZM286.41,331.55c-2.34-1.93-4.52-3.89-6.87-5.63-2.52-1.87-5.16-2.26-7.36.53-2.39,3-4.64,6.18-7,9.37l16.28,5.69Zm-44,12.43,1.59-1.24c-2.74-10.56-8.09-19.75-15-28.08-2.09-2.5-5-4-7.77-2-2.56,1.88-4.34,4.8-5.93,6.64,4.69.78,10.52,0,13,2.55,4.79,4.8,7.69,11.48,11.35,17.39C240.61,340.82,241.49,342.41,242.41,344ZM266,610.12c1-6.87,2-13.71,3-20l-8-2.38c-1.08,5.65-2.16,11.39-3.29,17.12-.87,4.4.09,5.58,4.57,5.44C263.46,610.26,264.57,610.19,266,610.12Zm10.24-67.72-7.2-1.42c-1.14,6.32-2.22,12.52-3.38,18.69-.66,3.52,2.17,3.8,4.19,4,1.18.14,3.51-1.22,3.69-2.2C274.72,555.28,275.4,549,276.28,542.4ZM628.6,477.52c5.81-3.29,11-6,15.88-9.11,1.34-.84,2-2.81,3.31-4.86-6.28,0-11.17-.09-16,.16-1,.06-2.73,1.39-2.82,2.26C628.55,469.63,628.67,473.35,628.6,477.52ZM264.75,566.87c-.93,4.43-2,9-2.8,13.58-.68,3.9,3.31,3.79,5.26,5.32.34.26,3.15-1.39,3.41-2.48,1.11-4.85,1.72-9.83,2.49-14.65Zm206.66-83.32L492.69,468c-6.41.32-12.36.53-18.29,1-.75.06-1.87,1.46-2,2.34C471.93,475.18,471.75,479,471.41,483.55ZM622.94,537.1c-1.23,1.28-2.42,2.61-3.68,3.85-4.51,4.43-8.5,9.71-13.74,13-4.84,3-3.42,6.2-3.35,10.78C611.55,556.48,619.64,548.58,622.94,537.1ZM258.44,357.4c7.44-9.11,11.67-10.94,18.52-8.33l2.4-4a95.37,95.37,0,0,0-9.55-3.88c-5.12-1.48-7.56.05-9,5.29C260,349.74,259.38,353.06,258.44,357.4ZM624.37,475.63l-.57-11.52-20.46,1-.53,1.07ZM277.5,516.41l-5.39-.81c-.89,7.15-1.76,14-2.63,20.95L276,537.9C276.54,530.52,277,523.59,277.5,516.41ZM667.67,412.14l.75-1.41c-1.08-.78-2.18-2.28-3.23-2.25-8.78.24-17.56.76-26.78,1.22,0,.45-.15,2-.3,3.92ZM526.1,382.64c0-1,.11-2,.16-2.94-17,3.49-33.94,1.73-50.83-.79,0,.81-.05,1.62-.07,2.43C492.23,383.13,509.1,384.8,526.1,382.64Zm-39,38.23c-9,1.89-17,3.5-24.91,5.3-.94.22-1.63,1.55-2.43,2.37l.79,1.4c8.25-1.67,16.52-3.28,24.73-5.15C486,424.63,486.25,422.71,487.06,420.87ZM274.93,352.62c-6.66-.83-12.31,2.89-13.1,8.23a3.72,3.72,0,0,0,1.85,3.08c1.37.5,3.92.66,4.49-.13A127.38,127.38,0,0,0,274.93,352.62ZM247.1,382c1,1.17,1.41,1.64,1.79,2.14,1.7,2.27,3.08,5.64,6.76,3.05,3.34-2.36,4.18-5.06.45-8.17-1.39-1.16-2-3.2-3.22-5.15l-3.17,2.44,2.09,2.95Zm27.72,112.12-1.3-26.25-2.45-.09c-.11,7.52.46,15.11.42,22.63C271.48,491.35,273.13,492.3,274.82,494.12Zm2.18,17.4c-.22-4.43-.3-8.8-.76-13.13-.09-.89-1.55-1.65-2.38-2.47-.79,1-2.24,2-2.25,3-.05,4.4.32,8.81.54,13.23Zm-5.59-67.21-2.12-.23c-3.23,6.11,1.06,12.47.71,18.68,0,.58,2,1.28,3.66,2.24C272.83,457.33,272.12,450.82,271.41,444.31Zm162-10.23.43,1.5,24.27-5.46c-.76-1.65-2-2.8-2.69-2.52C448.36,430.58,439.9,429.44,433.42,434.08Zm-167.34-12.4-.47.13c.24,4.83.31,9.68.81,14.48.2,1.85-.09,5.46,3.76,3.5Zm267.53-26c-3.07,3.83-1.62,7.93-.7,12C536.25,403.93,534.24,399.71,533.61,395.65ZM222.85,438.32l-6.51,4.42.24,1.07,6.55.23Z" transform="translate(-120.18 -159.7)"/><path class="cls-1" d="M722.64,408.58c-3.83,3.26-6.58,9.06-11.37,4.32-3.53-3.49.89-6.66,2.63-9.84-2.49-2.74-6.49-2.37-10.64.83-9.31,7.2-14.17,17-16.38,28.21-.75,3.83.14,8,.15,12,0,1.83-.32,3.67-.49,5.5l-1.57.3c-.89-2.75-2.18-5.45-2.61-8.28-1.91-12.47-.53-24.83,2.25-37,1.66-7.27,5.27-13.38,13.88-16.61l-7.07-12.37L670.2,395.09c-1.13-6.48,2.08-15.5,7.65-23.49l1.42,1.82c1.21-1.47,2.42-2.92,2.77-3.36l12.89,1.66c1.05,2.46,1.91,4.62,2.89,6.72a14.32,14.32,0,0,0,2,3.39c1.93,2.2,4,4.32,6.07,6.36,1.41,1.38,3,2.57,4.91,4.18-.47-6.59-6.5-10.94-5.43-18.53l4.25,5.08c1.46-5.9,2.7-11.63,4.31-17.25A41.27,41.27,0,0,1,725,343a16.35,16.35,0,0,1,4.06-2.68c2.7-1.34,3.92-.26,3.1,2.53-1.8,6.07-4,12-5.69,18.14-1.89,6.79-3.42,13.69-5.42,21.86,1.62-1.09,2.27-1.3,2.46-1.71s0-1.3.2-1.91c1.76-6.69,3.61-13.36,11.08-16.07,5.13-1.87,9.38-.64,12.62,3.53,6.26,8.07,9.63,17.39,11.45,27.3,1.15,6.27,2,12.6,2.81,18.93.22,1.74-.29,3.57-.46,5.36l-1.75.22c-.89-3.29-2.47-6.56-2.53-9.86-.2-11.21-5.88-19.9-12.34-28.2-4.07-5.24-9.62-5.2-12.64.66s-4.65,12.74-6.51,19.27c-.26.91,1.76,2.34,2.41,3.68a34.51,34.51,0,0,1,3,7.65c.15.73-2.15,2-3.63,3.25,10.18,43.31,12.89,87.55,3.44,131.84-2.15.35-3.9.56-5.62.92-3.78.79-7.19.48-9.52-3-2-3,0-5.38.86-8.28,2.46-8.56,4.88-17.35,5.53-26.19,1.64-22.45,2.62-45,3.19-67.46.19-7.58-1.78-15.2-2.45-22.83-.22-2.47.67-5,.82-7.55C723.6,411.28,723.06,410.22,722.64,408.58Zm-8.52,3.31c3.51-3.21,6.21-5.32,8.35-7.89.52-.63-.83-2.77-1.23-4.24a55.93,55.93,0,0,1-1.94-7.88A77.14,77.14,0,0,1,722.48,361c1.3-4.38,2.51-8.77,3.77-13.16-11.43,13-17.64,39.89-6.44,51.32Zm-3-14.13c-3.15-6.34-12-8.81-16.21-4.29-6.88,7.38-7.73,16.83-8.7,26.16C692.21,409.74,697.31,399.12,711.16,397.76Zm8.36,145.57,1.07,1.36c2.37-1.11,6.38-1.77,6.84-3.41,1.92-6.92,2.79-14.13,4.07-21.38l-6-.65C723.47,527.48,721.49,535.41,719.52,543.33Zm11.71-26.51c.45-7.7.85-14.82,1.28-21.94.23-3.73-1.64-3.49-3.87-2.54-1,7.87-1.87,15.38-2.79,22.95ZM727,380.05c2.91-2.32,6.27-7.09,10.06-7.46s8.19,3.54,11.92,5.38c-2.69-8.16-6.29-12.07-11-11.6C732.82,366.88,728,373.34,727,380.05Zm4.67,108.41.92-.74-1-19-1.93-.17c-3,5.16-.62,11.09-.75,16.62C728.93,486.24,730.72,487.36,731.67,488.46Zm-44.8-114.08c-7.79,1.13-9.82,3.22-10.91,10.18Zm42.87,76.38-1.18.05.7,13.89,1.17-.05Z" transform="translate(-120.18 -159.7)"/><path class="cls-1" d="M819.22,500c-3.76,1.18-4.2-.68-4.64-3.58-3.27-21.78-6.14-43.64-10.38-65.24a223.48,223.48,0,0,0-11.33-37.82c-4.11-10.56-9.9-20.51-15.52-30.4-8.05-14.14-16.6-28-25-41.93-1.54-2.57-3.22-5.06-4.84-7.59l1.33-1.14c2,2,4.4,3.81,5.91,6.16,8,12.46,16.53,24.68,23.45,37.74,8.07,15.24,15.7,30.89,21.57,47.07,4.82,13.3,7,27.59,9.94,41.52,2.22,10.37,4,20.84,5.79,31.3C816.89,484,818,491.91,819.22,500Z" transform="translate(-120.18 -159.7)"/><path class="cls-1" d="M171.21,665c.26-.47.66-2.31,1.78-3q18.25-11.81,36.71-23.28c5.07-3.16,7.69-2.45,11.19,2.59,1.3,1.88,2.44,3.89,3.87,5.67,2.51,3.11,3.4,6.11.7,9.67-3,3.9-6.52,6.31-11.6,5.61-1.89-.26-3.75-.76-4.49-.92-1,4.32-1,9-3.17,11.8-2.53,3.27-6.86,6.29-10.85,7-5.34,1-10-2.57-13.83-6.47-1.46-1.5-2.44-3.52-4-4.89S174.06,666.67,171.21,665Zm7.15-1.64a65.82,65.82,0,0,1,4.43,6.24c2.43,4.46,6.58,6.17,11.1,7.11,5.15,1.07,12.68-7,10.62-11.69s-5.11-8.84-7.82-13.38Zm36.54-24.14-15.09,10.84c4,4.73,7.92,9.68,14.78,8.52a12.92,12.92,0,0,0,7.25-4.57c.84-1.07-.41-4.27-1.37-6.17A94.49,94.49,0,0,0,214.9,639.23Z" transform="translate(-120.18 -159.7)"/><path class="cls-1" d="M234.92,744c.65-1.33,1-3,2-3.93,4.46-4.3,9.19-8.32,13.61-12.66a6.08,6.08,0,0,0,1.5-4.27c-.42-6-1.26-12-1.76-18.09-.24-2.89-.06-5.81-.08-9-5.93,5-11.61,10.13-17.62,14.82-5.84,4.57-12,8.7-18,13l-1.41-1c.56-1.39.73-3.27,1.75-4.1,12.16-9.89,24.45-19.63,36.72-29.39a9.52,9.52,0,0,1,2.46-1.55c.63-.23,1.91-.21,2.06.11.37.74.53,2.39.25,2.52-3.63,1.65-2.58,5-2.43,7.54.45,7.73,1.33,15.44,2.12,23.93l11.29-11.1c.59-.58,1-1.43,1.75-1.72,1.8-.75,3.71-1.25,5.58-1.85-.8,1.56-1.28,3.46-2.47,4.64q-15.75,15.54-31.75,30.85a22.25,22.25,0,0,1-4.15,2.57Z" transform="translate(-120.18 -159.7)"/><path class="cls-1" d="M529.25,777.25c6.87-.72,13.86-2.55,20.57-1.83,7.22.77,11.58,6.73,13,13.7,1.87,9.29,1.35,18.78-3.11,27.24-2.37,4.5-6.46,8.25-10.29,11.77-2.52,2.32-4.64.66-5.87-2.32-3.46-8.43-7.08-16.8-10.58-25.21q-3.48-8.33-6.82-16.72a10.31,10.31,0,0,1-1-3.73,15.6,15.6,0,0,1,1-3.85l3.42,2.05Zm.16,4.54,19,43.25c3.5-4.95,7.63-8.81,9.21-13.52a52.85,52.85,0,0,0,2.21-18.34c-.31-8.93-8.08-15-17-14C538.53,779.69,534.32,780.82,529.41,781.79Z" transform="translate(-120.18 -159.7)"/><path class="cls-1" d="M286.37,750c-1.71-4.92-9.63-1.82-9.39-9.1,6.6,1.27,11.35,4.45,16.76,8.24-7.19,5.94-13.15,11.48-19.74,16.11-4.23,3-9.52,4.83-14.79,2.44-6-2.74-9.26-13.34-6.92-19.91,3.53-9.88,11.37-15.84,19.35-21.55a46.25,46.25,0,0,1,13.29-6.9c7.93-2.38,14.78,2.42,14.37,9.56-.11,2-2,3.86-2.71,5.2-1.36-3.68-1.77-7.55-3.89-9.86-3.1-3.4-7.58-1.76-10.95.23-9.71,5.75-19.09,12-24.46,22.55a14.36,14.36,0,0,0,1.34,15.62c2.76,3.42,6.47,2.41,9.49,1.25A42.47,42.47,0,0,0,286.37,750Z" transform="translate(-120.18 -159.7)"/><path class="cls-1" d="M374.17,772.18c11.52-1.15,17.57,5.86,14.49,19-3,12.81-10.35,23.24-22.71,29.14-5.18,2.48-13.86.27-17.91-4.08-3-3.18-4.57-12.84-1.73-16.75,6.62-9.07,13.8-17.74,20.89-26.45,1.87-2.29,4.42-2.64,7-.85-3.34,3.5-7,6.79-10,10.56a175.18,175.18,0,0,0-13.56,18.39c-2.51,4.13-2.48,9.24,1.36,13.11,3.24,3.25,9.53,3.78,14,.87,4.27-2.8,8.83-5.76,11.81-9.74a38.5,38.5,0,0,0,7.1-15.24C386.5,781.68,382.49,775.33,374.17,772.18Z" transform="translate(-120.18 -159.7)"/><path class="cls-1" d="M474,781.47c2.76,15.17,8.87,28.52,14.65,42,1.93,4.51,3.93,9,5.53,13.63.41,1.18-.58,2.85-.92,4.29-1.1-.7-2.81-1.15-3.2-2.13-3.2-8-6.14-16.19-9.22-24.29-.74-1.94-1.7-3.8-2.79-6.21a85.1,85.1,0,0,0-8.93,2.63c-.92.36-1.73,2.09-1.83,3.26-.69,8.63-1.12,17.29-1.84,25.92-.09,1.08-1.39,2.06-2.13,3.08-.67-1.06-2-2.17-1.91-3.18q1.77-23.88,3.9-47.73c.27-3,.46-6.47,2-8.85C468.42,782.28,471.8,782.2,474,781.47ZM470.56,787l-.8-.11c-.63,6.86-1.25,13.72-1.92,21.13l8.27-3.16Z" transform="translate(-120.18 -159.7)"/><path class="cls-1" d="M583.89,754.18c.83,1.57,1.16,2.18,1.48,2.8,4-4.2,16.42-2.2,20,2.44,6.08,7.85,11,16.26,12.5,26.07a30.53,30.53,0,0,1-1.52,13.39c-1.54,4.76-7.75,6.77-12.88,5.16-11.72-3.68-18.17-12.69-21.59-23.54-1.89-6-1.38-12.77-1.35-19.19C580.56,759.18,582.47,757.07,583.89,754.18Zm-.17,14.41-.35.08a80.62,80.62,0,0,0,1.9,9.07c3.11,9.37,8.05,17.5,17.53,21.59,6,2.59,9.92.84,10.6-5.35.56-5.14-.49-10.58-1.52-15.74-2.26-11.35-10.87-19.16-21.17-19.79-5.11-.31-6.75,1.07-7.16,6.21A28.78,28.78,0,0,0,583.72,768.59Z" transform="translate(-120.18 -159.7)"/><path class="cls-1" d="M490.16,782.78c4.63,15,8.85,29.32,13.6,43.48.9,2.69,3.65,5,6,6.94,3.39,2.91,8.09,1.37,9.82-2.84,4.19-10.22,1.82-20.29-.92-30.24-1.34-4.85-3.69-9.42-5.34-14.2-.42-1.21.1-2.75.19-4.14,1.11.8,2.73,1.36,3.24,2.45,5,10.56,8.92,21.61,8.92,33.39A36.69,36.69,0,0,1,522,833.48c-3.16,6.34-10.09,6.67-15.87,2.46-6.51-4.75-8.18-12.14-10.55-18.91-3.12-8.91-5.19-18.2-7.35-27.42C487.59,787,486,783.08,490.16,782.78Z" transform="translate(-120.18 -159.7)"/><path class="cls-1" d="M309.43,769.82c-1.41-1-2.07-1.47-2.7-2-6.43-5.05-6.35-5-12.53,0-5,4-10.24,7.8-15.38,11.69l-1.52-1.12c.95-1.66,1.52-3.78,2.9-4.9,8.34-6.79,16.85-13.37,25.34-20,5.22-4,10.52-8,15.78-12l1.56.81c0,1.77.42,3.7-.14,5.27-1.69,4.77-3.72,9.43-5.69,14.09-4.12,9.76-8.23,19.51-12.5,29.2a4.94,4.94,0,0,1-2.92,2.07c-.59.18-2.14-.72-2.18-1.21a7.16,7.16,0,0,1,.91-3.29C303.29,782.37,306.29,776.27,309.43,769.82Zm8.7-20.41-.63-.63-14.4,11.65,7.81,5.22Z" transform="translate(-120.18 -159.7)"/><path class="cls-1" d="M239.18,669.17l-1.94,1.68,3.81,3c-10.65,13.55-21.27,27.12-32,40.57-.6.75-2.39.54-4.26.9.21-1.55,0-3,.59-3.87,4.63-6.09,9.54-12,14.09-18.11a4.87,4.87,0,0,0,.11-4.43c-1.33-2.16-3.39-3.88-5.23-5.87l-23.44,9.13-1.1-1.43c1.34-1.26,2.47-3,4.06-3.7,10.76-4.67,21.61-9.11,32.44-13.62l12.38-5.16C238.84,668.53,239,668.85,239.18,669.17Zm-2.46,6.16-1.8-1.73-16.5,7.93,5.84,6.42L223,686.39Z" transform="translate(-120.18 -159.7)"/><path class="cls-1" d="M664,716.92l-6.32-.39c-7.53,7.38-8.34,18-1.18,24.63a26.38,26.38,0,0,1,2.48-4.11c7.58-8.65,15-9.21,23.78-1.92,6,5,7.49,18.06,2.62,23.78-7.06,8.28-16.64,6.88-21.17-4.39,2.56,1.35,4.09,2.23,5.68,3,2.25,1.08,5.58,3.55,6.65,2.82,3.1-2.14,6.36-5.2,7.6-8.61,1.9-5.17-2.31-12.55-7.29-15.21-6.51-3.47-7.64-3.3-13.6,2.12-.24.22-.41.52-.66.72-2.78,2.14-4.44,6.66-9.2,4.68-4.6-1.92-5.36-6.43-6-10.49-1.21-7.35,2-13.41,6.85-18.67C656.19,712.67,663,714,664,716.92Z" transform="translate(-120.18 -159.7)"/><path class="cls-1" d="M741.7,707.88c-9.61-1.16-15.92-8.48-24.25-11.24-6,5.85-6,5.83-.88,12.5,2.49,3.26,5,6.53,7.2,10,.52.79,0,2.24,0,3.38-1.09-.45-2.55-.6-3.18-1.41-2.94-3.7-5.48-7.73-8.51-11.35-1.45-1.74-3.68-2.82-6.17-4.65,1.14-3.26-1.61-5.79-4.16-8.75-4.47-5.16-8.47-10.75-13.57-17.33,2,0,3.48-.37,4.53.15q13.11,6.5,26.06,13.29c5.37,2.81,10.68,5.73,15.88,8.83C737.14,702.75,741.7,701.65,741.7,707.88Zm-37.53-17-.75.86,6,7.42,3.5-4.68Z" transform="translate(-120.18 -159.7)"/><path class="cls-1" d="M603.05,749l34.57,29.1c-4.65-11.1-9-21.26-13.16-31.48-1.65-4-3.12-8.14-4.4-12.3-.27-.88.66-2.13,1-3.2,1.06.64,2.69,1,3.07,2Q634,756.5,643.51,780c.57,1.43-.14,3.37-.26,5.07-1.35-.12-3.14.28-4-.44-12.21-10.6-24.29-21.34-36.36-32.08a8.19,8.19,0,0,1-1.21-2Z" transform="translate(-120.18 -159.7)"/><path class="cls-1" d="M681.55,694.87c6.31,5.33,13,10.3,18.82,16.09a79.44,79.44,0,0,1,12,15.3c3.46,5.76,2,12.59-2.1,16.15-3.35,2.87-9.34,2.22-15.12-1.14-11.61-6.75-18.41-17.86-25.8-28.37-.9-1.27.26-4,.51-6.48,7.55,12,14.83,22.88,26.07,30.42a13.88,13.88,0,0,0,5.27,2.43c2.23.34,5.9.63,6.6-.51,1.44-2.33,2.74-6.53,1.58-8.38a237.78,237.78,0,0,0-15.57-21.13c-3.93-4.92-8.32-9.48-12.51-14.19Z" transform="translate(-120.18 -159.7)"/><path class="cls-1" d="M706,667.65c2-3.78,4.26-3,6.47-1.57,10.92,6.86,21.8,13.78,32.82,20.76l13.33-22.18c2.58,3.82,2.27,5.33.11,8.21-4.4,5.91-7.41,12.85-11.47,20.23C734,684.91,720.13,676.38,706,667.65Z" transform="translate(-120.18 -159.7)"/><path class="cls-1" d="M334.67,809.86a42.22,42.22,0,0,1-5.13-1.41c-5.89-2.39-11.66-5.1-17.62-7.31-3.76-1.39-4.27-2.52-1.87-5.73q10.86-14.5,21.53-29.14c2.29-3.16,4.11-6.65,6.36-9.84.45-.64,1.84-.61,2.8-.89,0,1,.45,2.24,0,2.93q-7.46,11.78-15.17,23.38c-3.48,5.25-7.1,10.42-10.58,15.5l20.78,9.48Z" transform="translate(-120.18 -159.7)"/><path class="cls-1" d="M126.56,496.92c10.46-.54,20.93-1.28,31.4-1.57,18.17-.5,36.34-.75,54.51-1a13.31,13.31,0,0,1,3.5.91l.11,1.68a52.47,52.47,0,0,1-7.41,1.13c-15.06.19-30.14.54-45.2.2-11.17-.25-21.76,2.41-32.51,4.64a6.49,6.49,0,0,1-4.9-1.74c-.61-.58.34-2.81.59-4.3Z" transform="translate(-120.18 -159.7)"/><path class="cls-1" d="M737.43,506.45c1.92-.72,3.81-2,5.76-2.08,11.52-.43,23-.47,34.58-.87,12.25-.43,24.49-1.15,36.74-1.62a10.94,10.94,0,0,1,4,1.07c.08,0-.15,1.92-.54,2.05a14,14,0,0,1-4,.59c-6,.15-12,.23-18,.35-4.64.09-9.29.09-13.93.31-14.59.68-29.17,1.43-43.75,2.16C738,507.76,737.71,507.1,737.43,506.45Z" transform="translate(-120.18 -159.7)"/><path class="cls-1" d="M634.17,509c1.53-.87,3-2.47,4.57-2.5,10.29-.14,20.59.21,30.88.08,9.18-.1,18.35-.58,27.53-.95,5.86-.23,11.71-.69,17.57-.77,1.23,0,2.47,1.14,3.7,1.75l-.58,1.9-83.08,1.26Z" transform="translate(-120.18 -159.7)"/><path class="cls-1" d="M661.76,773.51c-1.24-1.06-2.77-1.91-3.67-3.21-7.75-11.16-15.39-22.4-23.06-33.62-.46-.67-1.27-1.29-1.34-2a31.77,31.77,0,0,1,.14-4.67c1.29.87,3,1.46,3.8,2.65q12.29,17.42,24.27,35c.88,1.31.91,3.19,1.34,4.81Z" transform="translate(-120.18 -159.7)"/><path class="cls-1" d="M586.8,813.06c-1.17-.79-2.82-1.31-3.42-2.41-3.27-6-6.26-12.07-9.38-18.11-3.5-6.78-7.12-13.48-10.45-20.34-.6-1.22,0-3,0-4.55,1.38.92,3.37,1.51,4.06,2.8,6.36,11.93,12.52,24,18.66,36a39.65,39.65,0,0,1,1.85,5.31Z" transform="translate(-120.18 -159.7)"/><path class="cls-1" d="M377.84,756.68c4.78.33,9.63-6.54,14.14-.14,3.22,4.55,2.17,8.3-1.66,10.49-.24-1.36-.54-2.56-.64-3.78-.45-5.46-1.34-6-6.81-4.48-1.67.46-3.53.18-5.3.23Z" transform="translate(-120.18 -159.7)"/><path class="cls-1" d="M702,369.83l-17.11-4.11c1.28-1,2.58-2.74,4.16-3C693.91,361.76,700.6,365.87,702,369.83Z" transform="translate(-120.18 -159.7)"/><path class="cls-1" d="M426.06,807.56c-.79,2-1.59,4.05-2.38,6.08L420,811.82l3.85-5.49Z" transform="translate(-120.18 -159.7)"/><path class="cls-1" d="M177,625.15c-1.51,1.1-2.67,2.35-3,2.15a24.74,24.74,0,0,1-3.84-3.07c.8-.83,2-2.5,2.32-2.34C173.84,622.51,175.05,623.71,177,625.15Z" transform="translate(-120.18 -159.7)"/><path class="cls-1" d="M229.86,544.48c-.29-5.75-.88-11.51-.8-17.26.2-14.88.92-29.74,1-44.62.09-13.83-.42-27.67-.52-41.51,0-2.17.81-4.34,1.24-6.51l2.09.27-1.47,109.42Z" transform="translate(-120.18 -159.7)"/><path class="cls-1" d="M746.34,638.82c-1.52,1.11-2.68,2.35-3.05,2.15a24.55,24.55,0,0,1-3.83-3.07c.79-.82,1.95-2.49,2.32-2.34C743.23,636.19,744.44,637.39,746.34,638.82Z" transform="translate(-120.18 -159.7)"/></svg>